<?xml version="1.0" standalone="no"?>
<!DOCTYPE svg PUBLIC "-//W3C//DTD SVG 20010904//EN"
 "http://www.w3.org/TR/2001/REC-SVG-20010904/DTD/svg10.dtd">
<svg version="1.0" xmlns="http://www.w3.org/2000/svg"
 width="1009.000000pt" height="1009.000000pt" viewBox="0 0 1009.000000 1009.000000"
 preserveAspectRatio="xMidYMid meet">
<metadata>
Created by potrace 1.11, written by Peter Selinger 2001-2013
</metadata>
<g transform="translate(0.000000,1009.000000) scale(0.100000,-0.100000)"
fill="#000000" stroke="none">
<path d="M4710 10080 c-297 -29 -480 -61 -750 -130 -47 -12 -157 -45 -245 -75
-491 -164 -950 -416 -1365 -751 -162 -130 -205 -169 -375 -339 -334 -333 -533
-595 -825 -1085 -136 -231 -328 -676 -427 -995 -129 -414 -196 -755 -237
-1210 -14 -151 -14 -791 -1 -900 3 -27 13 -111 21 -185 17 -161 17 -159 55
-373 122 -684 398 -1378 777 -1952 128 -195 219 -316 382 -510 82 -97 334
-356 446 -456 81 -73 233 -195 339 -274 114 -83 160 -114 305 -205 47 -29 101
-63 120 -75 83 -52 429 -217 571 -273 299 -117 649 -211 914 -247 28 -4 59 -8
71 -10 11 -2 52 -6 90 -10 38 -4 80 -9 94 -12 58 -12 629 -10 750 3 212 22
231 25 370 50 528 97 1041 298 1510 592 302 190 540 381 810 652 393 393 695
817 945 1325 310 631 488 1288 543 2002 9 131 9 692 -1 818 -41 516 -144 1001
-304 1445 -333 922 -897 1708 -1638 2285 -112 87 -397 277 -521 348 -340 193
-713 342 -1089 436 -120 30 -357 75 -450 86 -66 7 -121 14 -170 21 -64 9 -633
12 -715 4z"/>
</g>
</svg>
